<?xml version="1.0" encoding="utf-8"?>
<!-- Generator: Adobe Illustrator 24.3.0, SVG Export Plug-In . SVG Version: 6.00 Build 0)  -->
<svg version="1.1" id="Layer_1" xmlns="http://www.w3.org/2000/svg" xmlns:xlink="http://www.w3.org/1999/xlink" x="0px" y="0px"
	 viewBox="0 0 2359 521.04" style="enable-background:new 0 0 2359 521.04;" xml:space="preserve">
<style type="text/css">
	.st0{fill:#DE4D26;}
	.st1{fill:#FFFFFF;}
	.st2{fill:#454545;}
</style>
<g>
	<path class="st0" d="M2253.02,107.55c-0.11,1.33-0.31,2.65-0.32,3.98c-0.02,24.7-0.02,49.39-0.01,74.09c0,1.83,0.04,3.5-1.52,5.01
		c-19.19,18.65-38.31,37.38-57.45,56.08c-0.33,0.33-0.72,0.6-1.12,0.93c-1.1-0.92-0.57-2.09-0.58-3.08
		c-0.13-25.06-0.28-50.11-0.23-75.17c0.01-3.15-0.66-4.08-3.98-4.06c-26.65,0.15-53.29,0.09-79.86,0.09
		c3.66-3.95,7.19-8.04,11.02-11.84c15.53-15.39,31.14-30.69,46.73-46.02C2194.81,107.55,2223.91,107.55,2253.02,107.55z
		 M2165.68,140.9c0.67,1.01,1.47,0.71,2.14,0.72c14.9,0.26,29.79,0.57,44.69,0.69c2.65,0.02,3.59,0.58,3.56,3.42
		c-0.11,10.26,0.08,20.52,0.14,30.79c0.03,4.82,0,9.64,0,15.35c3.8-3.4,6.81-6.2,9.94-8.84c1.43-1.21,1.98-2.49,1.97-4.38
		c-0.08-15.28-0.1-30.55,0.01-45.83c0.02-2.44-0.42-3.34-3.12-3.31c-15.15,0.14-30.31,0.06-45.46,0.08c-1.05,0-2.2-0.34-3.12,0.59
		C2172.84,133.76,2169.25,137.34,2165.68,140.9z"/>
	<path class="st1" d="M521.28,347.57c0,12.07,0,23.16,0,34.25c0,9.54-0.08,19.08,0.06,28.62c0.04,2.44-0.69,3.06-3.07,3.04
		c-11.86-0.12-23.73-0.14-35.59,0.01c-2.85,0.04-3.72-0.69-3.7-3.62c0.14-16.14,0.07-32.28,0.07-48.43
		c0-50.02,0.04-100.03-0.09-150.05c-0.01-3.47,1.01-4.18,4.25-4.12c11.61,0.19,23.24,0.15,34.85,0.02c2.48-0.03,3.45,0.47,3.27,3.16
		c-0.25,3.71-0.06,7.46-0.06,11.49c44.19-37.61,111.68-14.24,123.22,42.31c5.14,25.18,2.28,49.21-12.39,70.89
		c-12.21,18.05-29.77,27.79-51.17,30.69c-12.87,1.75-25.58,1.07-37.93-3.48C534.85,359.34,527.68,354.89,521.28,347.57z
		 M519.64,284.75c-0.37,39.22,34.81,52.2,61.76,40.66c14.78-6.33,21.69-18.84,23.16-34.3c1.66-17.42-2.97-32.81-18.38-42.66
		c-15.51-9.91-32.1-9.72-47.9-0.74C524.21,255.7,519.92,269.42,519.64,284.75z"/>
	<path class="st0" d="M2026.61,222.61c0-4.66,0.11-8.52-0.04-12.38c-0.09-2.17,0.45-2.96,2.81-2.94c12.1,0.12,24.21,0.14,36.32-0.01
		c2.6-0.03,3.21,0.68,3.2,3.24c-0.1,25.07-0.06,50.13-0.06,75.2c0,24.58-0.08,49.16,0.09,73.73c0.02,3.39-0.99,3.98-4.09,3.93
		c-11.61-0.18-23.23-0.16-34.85-0.01c-2.81,0.04-3.62-0.82-3.44-3.53c0.22-3.51,0.05-7.04,0.05-11.3c-2.1,1.85-3.61,3.35-5.29,4.63
		c-10.28,7.88-22.1,12.07-34.84,13.11c-19.98,1.64-38.7-2.36-54.99-14.68c-16.19-12.24-25.2-28.92-28.7-48.66
		c-3.81-21.46-1.6-42.24,9.17-61.42c13.5-24.04,34.86-35.8,61.99-37.49c16.93-1.06,32.85,2.1,46.55,12.9
		C2022.4,218.46,2024.08,220.25,2026.61,222.61z M1985.61,329.15c25.65,0.11,42.63-16.85,42.75-42.71
		c0.13-27.34-16.85-45.36-42.73-45.34c-25.44,0.01-42.57,17.63-42.67,43.87C1942.87,310.65,1960.62,329.04,1985.61,329.15z"/>
	<path class="st1" d="M1764.19,223.21c0-5.02,0.13-8.93-0.05-12.82c-0.1-2.3,0.45-3.14,2.96-3.11c11.98,0.14,23.97,0.15,35.95-0.01
		c2.68-0.04,3.15,0.82,3.14,3.29c-0.08,33.14-0.06,66.28-0.06,99.41c0,16.63-0.06,33.26,0.06,49.89c0.02,2.65-0.5,3.55-3.36,3.51
		c-11.86-0.18-23.72-0.13-35.58-0.03c-2.32,0.02-3.27-0.5-3.12-3.03c0.22-3.76,0.06-7.55,0.06-11.93c-2.02,1.78-3.62,3.35-5.38,4.71
		c-10.24,7.96-22.06,12.13-34.79,13.18c-20.11,1.67-38.94-2.33-55.31-14.81c-16.37-12.48-25.41-29.43-28.67-49.45
		c-3.6-22.11-1.1-43.44,10.74-62.91c12.84-21.11,32.13-32.12,56.46-34.73c15.03-1.61,29.48,0.22,43,7.4
		C1755.34,214.49,1759.79,218.05,1764.19,223.21z M1680.55,278.45c-0.09,30.59,14.06,47.55,37.51,50.22
		c16.51,1.88,31.12-2.58,40.82-17.3c5.93-9,7.53-19.26,6.75-29.82c-3.1-41.6-44.04-47.44-65.77-34.37
		C1685.72,255.69,1680.72,269.27,1680.55,278.45z"/>
	<path class="st1" d="M148.64,302.31c2.62,11.59,9.96,18.99,20.67,23.34c19.53,7.93,43.86,5.4,59.38-11.74
		c1.65-1.82,2.86-1.84,4.88-0.65c9.23,5.48,18.52,10.89,27.9,16.1c2.39,1.33,1.91,2.28,0.6,3.96
		c-16.92,21.72-39.36,32.71-66.63,33.81c-21.08,0.85-40.69-4.31-58.14-16.44c-18.27-12.71-27.85-30.65-30.52-52.46
		c-1.55-12.61-0.91-25.13,2.56-37.41c5.42-19.17,16.89-33.75,34.25-43.38c23.86-13.23,49.03-16.77,75.23-8.14
		c31.76,10.46,50.83,35.87,53.35,70.34c0.48,6.6-0.31,13.17-0.47,19.76c-0.04,1.85-0.76,2.57-2.66,2.52
		c-4.28-0.11-8.56-0.03-12.84-0.03c-34.48,0-68.97,0-103.45,0.02C151.44,301.91,150.08,301.6,148.64,302.31z M188.12,271.52
		c12.1,0,24.2-0.05,36.29,0.05c2.42,0.02,2.99-0.74,2.37-2.98c-1.87-6.78-5.4-12.54-10.71-17.12
		c-14.44-12.47-38.94-12.71-54.36-0.58c-5.53,4.35-9.43,9.79-11.35,16.64c-0.8,2.84-0.62,4.13,2.93,4.07
		C164.9,271.4,176.51,271.52,188.12,271.52z"/>
	<path class="st1" d="M1160.66,301.89c-19.32,0-38.64,0.07-57.96-0.07c-3.34-0.02-3.54,0.9-2.57,3.73
		c4.13,12.02,13.15,18.62,24.76,21.83c20.6,5.68,39.23,2.39,54.53-13.55c1.75-1.82,2.94-1.64,4.91-0.47
		c9.02,5.36,18.1,10.65,27.27,15.74c2.47,1.37,2.73,2.2,0.94,4.48c-16.91,21.58-39.29,32.39-66.39,33.57
		c-19.77,0.86-38.29-3.8-55.12-14.38c-16.97-10.67-27.6-25.93-31.97-45.48c-3.17-14.15-3.2-28.35-0.04-42.51
		c4.33-19.44,14.82-34.82,31.77-45.19c25.58-15.65,52.9-19.67,81.42-9.27c32.51,11.86,51.86,41.29,50.68,75.91
		c-0.15,4.27-0.51,8.54-0.54,12.81c-0.02,2.51-1.14,2.91-3.35,2.9C1199.55,301.86,1180.11,301.89,1160.66,301.89z M1138.78,271.52
		c11.85,0,23.7-0.14,35.54,0.09c3.59,0.07,3.72-1.26,2.87-3.98c-1.63-5.21-4.2-9.88-8.02-13.78c-11.97-12.22-26.5-14.09-42.25-9.91
		c-12.83,3.4-22.23,10.78-26.03,24.13c-0.78,2.76-0.28,3.56,2.71,3.52C1115.33,271.43,1127.06,271.52,1138.78,271.52z"/>
	<path class="st1" d="M758.03,366.97c-38.73-0.03-73.13-26.09-81.89-62.02c-9.14-37.48,8.93-74.72,44.67-92.08
		c46.61-22.64,104.1,1.61,119.16,50.27c11.18,36.11-6.1,75.79-40.77,93.75C786.28,363.59,772.56,366.91,758.03,366.97z
		 M800.85,285.62c0-32.28-31.29-53.09-60.25-40.05c-18.87,8.49-28.88,30.31-23.66,51.57c4.72,19.25,20.65,32.45,39.51,32.75
		C781.9,330.3,800.85,311.39,800.85,285.62z"/>
	<path class="st1" d="M919.73,220.77c19.03-16.18,40.24-19.48,63.14-13.91c22.08,5.38,33.77,20.54,38.11,42.15
		c1.57,7.82,2.06,15.74,2.07,23.68c0.07,28.73-0.03,57.46,0.1,86.18c0.02,3.39-0.6,4.6-4.31,4.52c-11.85-0.26-23.72-0.21-35.57-0.02
		c-3.15,0.05-4.1-0.66-4.08-3.99c0.15-29.71,0.07-59.41,0.1-89.12c0-3.57-0.3-7.08-1.15-10.54c-3.96-16.24-17.79-21.4-32.24-19.64
		c-14.34,1.74-23.45,12.42-25.44,28.42c-0.51,4.13-0.77,8.26-0.76,12.43c0.03,26.28-0.04,52.57,0.09,78.85
		c0.01,2.97-0.87,3.61-3.67,3.58c-11.86-0.15-23.72-0.13-35.57-0.01c-2.48,0.02-3.34-0.56-3.34-3.22c0.08-49.88,0.08-99.75,0-149.63
		c0-2.59,0.71-3.25,3.26-3.22c12.1,0.13,24.2,0.13,36.31,0c2.44-0.03,3.14,0.68,2.99,3.05
		C919.58,213.59,919.73,216.86,919.73,220.77z"/>
	<path class="st1" d="M1299.1,220.7c17.67-15,37.42-18.76,59.14-14.78c22.8,4.18,37.93,19.72,42.12,43.43
		c1.28,7.24,1.87,14.52,1.87,21.87c0,29.22-0.09,58.44,0.1,87.65c0.03,3.89-1.14,4.59-4.7,4.52c-11.85-0.22-23.72-0.16-35.57-0.02
		c-2.71,0.03-3.49-0.68-3.48-3.47c0.11-29.71,0.09-59.41,0.05-89.12c-0.01-8.35-1.3-16.39-7.3-22.78
		c-13.35-14.21-39.45-9.93-47.82,7.8c-3.24,6.86-4.39,14.2-4.4,21.72c-0.03,27.38-0.05,54.77,0.04,82.15
		c0.01,2.74-0.51,3.76-3.53,3.71c-11.86-0.19-23.72-0.16-35.57-0.02c-2.73,0.03-3.47-0.7-3.47-3.47
		c0.09-49.76,0.08-99.51,0.02-149.27c0-2.42,0.39-3.39,3.13-3.35c12.1,0.16,24.21,0.16,36.31,0c2.7-0.04,3.28,0.85,3.12,3.31
		C1298.94,213.73,1299.1,216.9,1299.1,220.7z"/>
	<path class="st1" d="M283.98,363.09c6.34-8.35,12.37-16.29,18.41-24.22c12.72-16.73,25.4-33.48,38.23-50.13
		c1.58-2.04,1.55-3.24,0.01-5.25c-18.42-24.05-36.74-48.19-55.09-72.3c-0.65-0.86-1.27-1.74-1.91-2.62c0.85-1.05,1.9-0.59,2.77-0.59
		c15.53-0.03,31.06,0.04,46.58-0.09c2.41-0.02,3.7,0.85,5.01,2.73c9.7,13.93,19.5,27.8,29.28,41.67c0.69,0.98,1.46,1.91,2.41,3.15
		c5.63-8.12,11.11-16.02,16.58-23.91c4.94-7.13,9.87-14.26,14.81-21.38c0.75-1.08,1.32-2.23,3.03-2.22
		c17.09,0.05,34.19,0.03,52,0.03c-3.6,4.69-6.81,8.92-10.06,13.12c-15.97,20.7-31.9,41.43-48,62.04c-1.89,2.42-1.71,3.82,0.06,6.11
		c18.13,23.51,36.13,47.12,54.17,70.7c0.71,0.93,1.35,1.91,2.39,3.38c-4.44,0-8.31,0-12.18,0c-12.59,0-25.19-0.06-37.78,0.05
		c-2.47,0.02-3.96-0.73-5.37-2.8c-9.73-14.35-19.6-28.61-29.47-42.96c-1.64,0.88-2.27,2.53-3.21,3.86
		c-9.33,13.14-18.63,26.32-27.87,39.52c-1.06,1.51-2.09,2.38-4.11,2.37c-16.14-0.09-32.28-0.05-48.42-0.06
		C285.69,363.3,285.12,363.2,283.98,363.09z"/>
	<path class="st1" d="M1495.87,279.63c0.36,10.07-0.69,22.43,0.51,34.74c1.04,10.69,6.81,16.03,17.46,16.33
		c3.17,0.09,6.36-0.02,9.52-0.24c1.75-0.12,2.66,0.01,2.64,2.16c-0.1,10.39-0.07,20.78-0.01,31.17c0.01,1.63-0.4,2.46-2.16,2.6
		c-14.77,1.18-29.56,1.78-44.11-1.67c-17.27-4.1-25.67-15.23-25.78-33.73c-0.09-15.16-0.02-30.32-0.02-45.48
		c0-13.45-0.06-26.9,0.06-40.34c0.02-2.51-0.56-3.42-3.2-3.28c-4.39,0.22-8.8-0.02-13.2,0.1c-1.92,0.05-2.81-0.26-2.79-2.53
		c0.12-10.76,0.1-21.52,0.01-32.27c-0.02-1.94,0.6-2.53,2.5-2.48c4.4,0.11,8.81-0.12,13.2,0.09c2.66,0.13,3.54-0.51,3.49-3.37
		c-0.18-11.61,0.01-23.23-0.14-34.84c-0.03-2.64,0.49-3.53,3.35-3.48c11.73,0.18,23.47,0.2,35.21,0c3.05-0.05,3.55,1,3.51,3.71
		c-0.13,11.61,0,23.23-0.11,34.84c-0.02,2.36,0.59,3.18,3.06,3.14c8.31-0.15,16.63,0.06,24.94-0.12c2.8-0.06,3.47,0.81,3.43,3.52
		c-0.17,10.14-0.19,20.3,0.01,30.44c0.06,2.89-0.9,3.43-3.53,3.37c-7.94-0.17-15.9,0.09-23.84-0.13c-3.11-0.09-4.2,0.55-4.11,3.94
		C1496.03,256.34,1495.87,266.85,1495.87,279.63z"/>
	<path class="st0" d="M2112.46,285.5c0-24.7,0.06-49.4-0.08-74.09c-0.02-3.25,0.83-4.09,4.06-4.03c11.86,0.21,23.72,0.15,35.58,0.03
		c2.47-0.02,3.35,0.52,3.35,3.2c-0.08,49.88-0.08,99.77,0,149.65c0,2.45-0.73,3.12-3.09,3.1c-12.1-0.09-24.21-0.16-36.31,0.04
		c-3.12,0.05-3.56-1.11-3.55-3.8C2112.5,334.9,2112.46,310.2,2112.46,285.5z"/>
	<path class="st1" d="M1604.24,285.6c0,24.69-0.05,49.39,0.06,74.08c0.01,2.85-0.69,3.73-3.62,3.69
		c-11.98-0.17-23.96-0.12-35.94-0.03c-2.3,0.02-3.13-0.5-3.13-3.02c0.08-50,0.07-100,0.02-150c0-2.19,0.52-2.95,2.84-2.92
		c12.22,0.11,24.45,0.14,36.67-0.01c2.74-0.03,3.15,0.98,3.15,3.39C1604.21,235.72,1604.24,260.66,1604.24,285.6z"/>
	<path class="st1" d="M1558.97,167.9c0.04-12.43,10.87-22.78,23.87-22.8c12.66-0.02,23.31,10.39,23.37,22.85
		c0.06,12.72-10.49,23.14-23.41,23.14C1569.66,191.08,1558.93,180.65,1558.97,167.9z"/>
	<path class="st1" d="M1858.53,365.51c-12.92-0.01-23.45-10.21-23.43-22.69c0.02-12.42,10.7-22.85,23.39-22.86
		c12.91-0.01,23.79,10.59,23.63,23.01C1881.95,355.54,1871.5,365.52,1858.53,365.51z"/>
</g>
</svg>
